<svg xmlns="http://www.w3.org/2000/svg" viewBox="0 0 500 400">
    <g id="Layer_x0020_1">
        <metadata id="CorelCorpID_0Corel-Layer" />
        <path fill="black" d="M108 140l11 0c2,-7 15,-27 21,-34 5,-6 7,-9 14,-15l15 -12c16,-12 38,-21 58,-26 21,-4 44,-4 64,1 5,1 7,2 11,3 14,4 26,9 37,17l16 11c2,2 2,2 4,4l22 25c3,3 4,4 6,8 2,2 3,5 5,8 2,3 4,6 5,10l10 0c0,-9 -17,-32 -22,-39 -11,-14 -32,-32 -49,-41 -9,-5 -9,-6 -21,-10 -25,-8 -34,-10 -62,-10 -23,0 -44,5 -62,14 -14,6 -26,14 -38,23 -16,13 -32,33 -41,51 -2,4 -4,7 -4,12zm-93 28c0,7 10,-5 10,14l-3 45c-1,16 -13,5 -13,12l0 3 31 0 0 -3c0,-5 -10,1 -10,-9 0,-18 1,-32 2,-49l24 54c3,7 1,7 6,7 3,0 5,-9 7,-14 1,-2 2,-2 2,-4l18 -43c0,0 0,0 0,-1 0,17 3,31 3,50 0,2 -2,5 -5,6 -5,2 -7,-3 -7,6l36 0c0,-13 -10,1 -12,-12 -1,-6 -1,-14 -1,-20l-2 -30c-1,-3 1,-6 1,-9 3,0 2,0 6,0 4,0 4,0 4,-5 -31,0 -22,-3 -30,13l-18 45c-1,-2 -1,-2 -2,-3 -4,-9 -21,-48 -22,-55l-25 0 0 2zm420 32l0 -29c9,0 26,-2 26,13 0,14 -12,16 -26,16zm50 37l0 3c0,1 -1,2 -2,2 -20,0 -15,1 -21,-10 -2,-4 -15,-27 -19,-27 -5,0 -8,-1 -8,2 0,4 0,27 2,29 1,0 8,1 10,1 0,5 0,5 -7,5l-26 0c0,-2 -1,-2 -1,-4 13,-6 11,13 11,-61 0,-4 -1,-6 -5,-6 -5,-1 -6,1 -6,-5l42 0c7,0 19,6 19,18 0,11 -11,18 -17,18 1,4 10,16 12,20 6,9 9,15 16,15l0 0zm-137 -64c0,5 9,-2 9,9 1,6 0,14 1,20 0,5 1,20 -1,27 -1,4 -6,4 -9,4l0 3 54 0c0,-10 1,-16 -2,-16 -6,0 3,12 -13,12l-19 0 0 -27 20 0c8,0 2,9 7,9 2,0 2,0 2,-2l0 -19c0,-2 0,-3 -2,-3 -5,0 1,10 -8,10l-19 0 0 -24 23 0c5,0 5,6 5,10 6,0 4,1 4,-15l-52 0 0 2zm-223 1c3,0 10,-1 10,6 0,7 0,45 -1,49 -2,7 -10,1 -10,6 0,2 1,2 2,2l54 0 0 -17c-11,0 3,10 -12,12 -6,1 -16,1 -22,1 -2,-7 -1,-19 -1,-26 0,-4 7,-2 17,-2 15,0 5,9 11,9 2,0 3,0 3,-2l0 -19c0,-2 -1,-3 -3,-3 -6,0 4,10 -11,10l-17 0c0,-31 -4,-24 16,-26 14,-1 13,4 13,11l4 0c0,-10 1,-15 -2,-15l-51 0 0 4zm132 145c25,0 49,-8 68,-23 4,-2 7,-5 10,-8 4,-3 16,-15 16,-20l-6 0c-5,8 -16,18 -24,24 -4,3 -6,4 -10,6 -7,4 -13,7 -22,10 -21,6 -42,7 -64,0 -8,-3 -14,-6 -22,-10 -10,-5 -28,-20 -33,-30l-7 0c1,3 4,6 8,10 2,4 6,7 8,9 16,16 40,27 61,30 5,1 12,2 17,2zm-94 -179l7 0c5,-9 24,-25 33,-31 26,-14 57,-18 87,-9 9,2 14,5 22,10 12,6 22,16 30,26 4,4 2,4 9,4 0,-5 -7,-12 -10,-15 -9,-9 -19,-16 -30,-23 -11,-6 -10,-4 -21,-8 -2,-1 -2,-1 -3,-1 -17,-6 -49,-5 -65,1 -4,2 -8,3 -12,5 -15,7 -30,18 -40,30 -2,3 -6,7 -7,11zm119 50l4 0c1,-14 3,-12 19,-12l0 45c0,9 -4,8 -11,8l0 5 32 0 0 -5c-8,0 -11,1 -11,-12l0 -41c17,0 19,-2 20,12l4 0 0 -18 -57 0 0 18zm-45 -1c0,5 0,7 4,11l1 2c3,2 5,3 8,5 4,1 23,9 12,19 -7,6 -17,2 -19,-2 -2,-3 -1,-3 -2,-6 -1,-4 -4,-3 -4,-1 0,14 -2,13 5,15 12,2 32,1 32,-15 0,-3 1,-4 -1,-7 -1,-1 -1,-1 -1,-2 -2,-2 0,0 -2,-2 -7,-6 -32,-12 -21,-24 3,-3 15,-6 18,2 2,5 -1,6 4,6l0 -13c-8,-1 -17,-4 -27,2 -3,2 -7,6 -7,10zm-45 -13c6,0 11,0 11,6 0,13 1,36 -2,48 -3,1 -5,1 -9,1 0,5 -1,5 8,5 9,0 14,-1 22,-1l0 -4c-6,0 -4,0 -9,-1 -2,-10 -2,-42 0,-53 5,-1 3,-1 9,-1l0 -4 -30 0 0 4zm-85 92l12 0c1,7 15,27 21,33 5,6 7,10 13,15l16 13c16,12 38,21 58,25 21,4 44,4 64,-1 5,-1 7,-1 11,-3 13,-4 26,-9 37,-16l16 -12c2,-1 2,-2 4,-3l22 -25c3,-3 4,-5 6,-8 1,-3 3,-6 5,-9 2,-3 4,-5 5,-9l10 0c0,8 -17,31 -22,38 -11,15 -32,33 -49,41 -9,5 -9,6 -21,10 -25,9 -34,10 -62,10 -23,0 -44,-5 -63,-13 -13,-6 -25,-14 -37,-24 -16,-13 -32,-33 -41,-51 -2,-3 -5,-6 -5,-11z" />
    </g>
</svg>