<?xml version="1.0" encoding="UTF-8"?>
<!DOCTYPE svg PUBLIC "-//W3C//DTD SVG 1.1//EN" "http://www.w3.org/Graphics/SVG/1.1/DTD/svg11.dtd">
<!-- Creator: CorelDRAW X7 -->
<svg xmlns="http://www.w3.org/2000/svg" xml:space="preserve" width="1772px" height="1181px" version="1.1" shape-rendering="geometricPrecision" text-rendering="geometricPrecision" image-rendering="optimizeQuality" fill-rule="evenodd" clip-rule="evenodd"
viewBox="0 0 1772 1181"
 xmlns:xlink="http://www.w3.org/1999/xlink"
 enable-background="new 0 0 64 64"
 xmlns:sketch="http://www.bohemiancoding.com/sketch/ns">
 <g id="Layer_x0020_1">
  <metadata id="CorelCorpID_0Corel-Layer"/>
  <g id="_2262565287504">
   <path fill="#FDCB00" d="M-6315 -3886c22,-10 28,19 10,25 -19,6 -25,-19 -10,-25zm-119 106l13 0 25 -100 63 0 -4 22 -40 0 -3 28 34 0 -3 22 -38 0 -6 28 50 3 16 -72 25 -3 -16 75 19 0 16 -72 18 -3 3 10c13,-10 41,-19 50,3 7,15 -3,43 -6,59l13 3c0,-40 28,-40 62,-40 -3,-25 -28,-13 -44,-13l4 -19c71,-12 68,13 56,72l12 0 16 -72 22 -3c3,6 3,3 3,10 12,-10 41,-19 50,3 6,15 -3,43 -6,59l22 0c-16,-25 -4,-84 65,-69l-3 22c-12,-3 -25,-6 -34,3 -13,13 -10,25 -3,38 9,3 18,3 28,0l3 6 15 0c-18,-34 13,-78 54,-72 21,3 31,19 28,44 -3,16 -16,9 -63,9 6,22 22,19 44,16l3 3 19 0 -10 53 -912 3 9 -56 22 0 22 -100c34,-6 75,-3 72,38 0,37 -28,43 -66,43l-3 22 75 -3c-19,-34 6,-69 41,-72 53,-6 47,44 31,72l12 3c0,-3 0,-3 0,-3 0,0 4,-3 4,-3 0,0 0,0 0,0 15,3 25,6 37,-3 -3,-19 -44,-13 -28,-47 6,-22 37,-19 59,-16l-3 19c-15,-3 -25,-6 -34,3 3,22 37,6 28,50l16 0c-4,-15 9,-78 15,-94l25 -3 -3 22 25 0 -3 22 -25 0c-6,9 -13,34 -9,47l21 3 0 0zm616 -53l-15 0 15 -75 78 0 -12 56 56 0 -12 75 -57 0 -12 53 -66 0 3 -18 44 -4 13 -53 56 0 9 -34 -56 0 9 -56 -37 0 -10 43c-3,13 0,10 -6,13l0 0zm-1003 -310l0 604c0,47 47,90 94,90l975 0c53,0 97,-40 97,-93l0 -597c0,-47 -44,-91 -88,-91l-987 0c-47,0 -91,44 -91,87l0 0z"/>
   <path fill="#FEFEFE" d="M-5871 -3780c-6,22 -12,22 -34,19 -16,0 -25,-6 -32,-19l-15 0c-3,13 -3,13 -10,16 -3,3 -12,3 -18,3 -19,-3 -22,-6 -28,-19l-22 0 -3 16 -25 0 3 -16 -32 3 -6 13 -22 0 0 -13 -12 0 -6 13c-13,3 -10,0 -22,0 0,0 0,0 0,0l-7 0c-15,3 -34,9 -43,-13l-13 -3 -3 16c-9,3 -16,3 -25,0l3 -16 -31 3 -3 13 -25 0 3 -13 -19 0 -3 13 -25 0 3 -13 -50 -3 -3 16 -25 0 0 -16 -13 0c-3,16 -3,22 -25,19 -12,-3 -18,-6 -21,-16l-16 0c-19,22 -34,16 -66,13l3 -13 -12 -3c-22,22 -53,31 -72,0l-75 3 -3 13 -25 0 3 -16 -22 0 -9 56 912 -3 10 -53 -19 0 0 0z"/>
   <path fill="#FF0100" d="M-5818 -3833c6,-3 3,0 6,-13l10 -43 37 0 -9 56 56 0 -9 34 -56 0 -13 53 -44 4 -3 18 66 0 12 -53 57 0 12 -75 -56 0 12 -56 -78 0 -15 75 15 0 0 0z"/>
   <path fill="black" d="M-6709 -3821c0,-6 7,-31 7,-34 6,-9 18,-3 25,0 6,28 -3,34 -32,34l0 0zm-34 41l-3 16 25 0 3 -13 3 -22c38,0 66,-6 66,-43 3,-41 -38,-44 -72,-38l-22 100 0 0z"/>
   <path fill="black" d="M-6605 -3830c28,-12 21,44 3,47 -28,9 -25,-38 -3,-47zm-38 50c19,31 50,22 72,0 16,-28 22,-78 -31,-72 -35,3 -60,38 -41,72z"/>
   <path fill="black" d="M-5915 -3814c3,-10 7,-19 19,-19 13,-3 16,6 16,19l-13 0 -9 0 -13 0zm-22 34c7,13 16,19 32,19 22,3 28,3 34,-19l-3 -3c-22,3 -38,6 -44,-16 47,0 60,7 63,-9 3,-25 -7,-41 -28,-44 -41,-6 -72,38 -54,72l0 0z"/>
   <path fill="black" d="M-6299 -3777l-3 13 25 0 3 -13c3,-22 9,-69 34,-50 7,3 3,-3 3,10l-6 37 -3 16c9,3 16,3 25,0l3 -16c3,-16 13,-44 6,-59 -9,-22 -37,-13 -50,-3l-3 -10 -18 3 -16 72 0 0z"/>
   <path fill="black" d="M-6115 -3777l0 13 22 0 6 -13c4,-22 10,-69 35,-50 6,6 3,-3 3,10l-6 37 -3 16 25 0 3 -16c3,-16 12,-44 6,-59 -9,-22 -38,-13 -50,-3 0,-7 0,-4 -3,-10l-22 3 -16 72 0 0z"/>
   <path fill="black" d="M-6177 -3780c-10,-22 9,-22 28,-22 0,19 -9,25 -28,22zm-28 3c9,22 28,16 43,13l7 0c0,0 0,0 0,0 12,0 9,3 22,0l6 -13c12,-59 15,-84 -56,-72l-4 19c16,0 41,-12 44,13 -34,0 -62,0 -62,40l0 0z"/>
   <polygon fill="black" points="-6421,-3780 -6421,-3764 -6396,-3764 -6393,-3780 -6387,-3808 -6349,-3808 -6346,-3830 -6380,-3830 -6377,-3858 -6337,-3858 -6333,-3880 -6396,-3880 "/>
   <path fill="black" d="M-6559 -3777l-3 13c32,3 47,9 66,-13 9,-44 -25,-28 -28,-50 9,-9 19,-6 34,-3l3 -19c-22,-3 -53,-6 -59,16 -16,34 25,28 28,47 -12,9 -22,6 -37,3 0,0 0,0 0,0 0,0 -4,3 -4,3 0,0 0,0 0,3l0 0z"/>
   <path fill="black" d="M-6480 -3777c3,10 9,13 21,16 22,3 22,-3 25,-19l-21 -3c-4,-13 3,-38 9,-47l25 0 3 -22 -25 0 3 -22 -25 3c-6,16 -19,79 -15,94l0 0z"/>
   <path fill="black" d="M-6008 -3780c6,13 9,16 28,19 6,0 15,0 18,-3 7,-3 7,-3 10,-16l-3 -6c-10,3 -19,3 -28,0 -7,-13 -10,-25 3,-38 9,-9 22,-6 34,-3l3 -22c-69,-15 -81,44 -65,69l0 0z"/>
   <polygon fill="black" points="-6343,-3777 -6346,-3764 -6321,-3764 -6318,-3777 -6302,-3852 -6327,-3849 "/>
   <path fill="#FDCB00" d="M-6087 -3777l32 -3 6 -37c0,-13 3,-4 -3,-10 -25,-19 -31,28 -35,50l0 0z"/>
   <path fill="#FDCB00" d="M-6274 -3777l31 -3 6 -37c0,-13 4,-7 -3,-10 -25,-19 -31,28 -34,50l0 0z"/>
   <path fill="#FDCB00" d="M-6605 -3830c-22,9 -25,56 3,47 18,-3 25,-59 -3,-47z"/>
   <path fill="#FDCC00" d="M-6709 -3821c29,0 38,-6 32,-34 -7,-3 -19,-9 -25,0 0,3 -7,28 -7,34l0 0z"/>
   <path fill="black" d="M-6315 -3886c-15,6 -9,31 10,25 18,-6 12,-35 -10,-25z"/>
   <path fill="#FDCC00" d="M-6177 -3780c19,3 28,-3 28,-22 -19,0 -38,0 -28,22z"/>
   <path fill="#FDCD00" d="M-5915 -3814l13 0 9 0 13 0c0,-13 -3,-22 -16,-19 -12,0 -16,9 -19,19z"/>
  </g>
  <g id="_2262565284144">
   <g id="Page-1">
    <g id="Master">
     <path id="Rectangle-1" fill="#265697" d="M-2366 -4214c-59,0 -697,0 -1050,0 -31,0 -59,31 -59,59l0 600c0,59 28,91 91,91 334,0 959,0 1018,0 60,0 88,-32 88,-91l0 -569c0,-59 -28,-90 -88,-90zm0 0z"/>
     <path id="path2268" fill="#DFAC16" d="M-2356 -3836c0,175 -138,315 -310,315 -175,0 -312,-140 -312,-315l0 0c0,-175 137,-316 312,-316 172,0 310,141 310,316l0 0c0,0 0,0 0,0l0 0 0 0zm0 0z"/>
     <path id="path1350" fill="#BF3126" d="M-3088 -4152c-171,0 -309,144 -309,316 0,175 141,315 313,315 81,0 153,-31 209,-81 0,0 0,0 0,0l0 0c13,-12 22,-22 31,-34l-62 0c-10,-13 -19,-22 -25,-35l109 0c10,-9 13,-21 19,-31l-147 0c-3,-12 -9,-22 -13,-34l172 0c13,-31 19,-66 19,-100 0,-22 -3,-47 -9,-69l-191 0c3,-9 6,-22 9,-31l172 0c-3,-13 -6,-25 -12,-35l-147 0c6,-12 12,-21 19,-34l109 0c-6,-9 -15,-22 -22,-31l-62 0c9,-13 19,-22 31,-35 -56,-50 -128,-81 -209,-81 -4,0 -4,0 -4,0 0,0 0,0 0,0l0 0 0 0 0 0zm0 0z"/>
     <path id="path4157" fill="white" d="M-2972 -3755l3 -28c-3,0 -6,0 -9,0 -13,0 -13,-6 -13,-13l10 -56 18 0 4 -31 -16 0 3 -22 -34 0c0,3 -19,113 -19,125 0,19 12,28 28,28 13,0 22,-3 25,-3 0,0 -3,0 0,0l0 0 0 0 0 0zm0 0z"/>
     <path id="path4155" fill="white" d="M-2963 -3811c0,47 32,59 57,59 25,0 37,-6 37,-6l3 -31c0,0 -18,9 -34,9 -34,0 -28,-28 -28,-28l66 0c0,0 6,-22 6,-31 0,-22 -13,-50 -47,-50 -35,0 -60,37 -60,78 0,0 0,-41 0,0l0 0 0 0 0 0zm60 -47c19,0 12,22 12,22l-34 0c0,0 3,-22 22,-22 0,0 -19,0 0,0l0 0 0 0zm0 0z"/>
     <path id="path4151" fill="white" d="M-2694 -3755l7 -37c0,0 -16,9 -29,9 -25,0 -34,-19 -34,-38 0,-40 22,-62 44,-62 19,0 31,9 31,9l6 -34c0,0 -22,-9 -37,-9 -41,0 -78,34 -78,96 0,41 22,69 62,69 10,0 28,-3 28,-3l0 0 0 0 0 0 0 0zm0 0z"/>
     <path id="path4149" fill="white" d="M-3156 -3886c-22,0 -41,6 -41,6l-3 28c0,0 12,-6 34,-6 13,0 22,3 22,12 0,7 0,10 0,10 0,0 -9,0 -15,0 -29,0 -60,9 -60,47 0,31 22,37 35,37 21,0 31,-15 34,-15l-3 12 31 0 13 -91c0,-40 -35,-40 -47,-40l0 0 0 0 0 0 0 0zm6 75c3,6 -3,31 -22,31 -9,0 -12,-9 -12,-12 0,-10 3,-22 28,-22 6,0 6,3 6,3 0,0 0,0 0,0l0 0 0 0 0 0zm0 0z"/>
     <path id="path4145" fill="white" d="M-3078 -3752c6,0 50,0 50,-44 0,-40 -41,-34 -41,-50 0,-9 6,-9 19,-9 3,0 22,0 22,0l6 -28c0,0 -12,-3 -31,-3 -25,0 -50,9 -50,44 0,37 40,34 40,50 0,9 -12,12 -18,12 -16,0 -32,-6 -32,-6l-3 28c0,3 10,6 38,6 0,0 -28,0 0,0l0 0 0 0 0 0zm0 0z"/>
     <path id="path4139" fill="white" d="M-2419 -3914l-6 47c0,0 -12,-19 -34,-19 -28,0 -53,37 -53,78 0,28 12,56 40,56 19,0 31,-15 31,-15l-3 12 32 0 28 -159 -35 0 0 0 0 0 0 0zm-15 87c0,19 -10,41 -28,41 -10,0 -16,-10 -16,-25 0,-25 12,-44 25,-44 12,0 19,9 19,28 0,0 0,-19 0,0l0 0 0 0zm0 0z"/>
     <path id="path4133" fill="white" d="M-3334 -3755l18 -119 3 119 22 0 44 -119 -19 119 35 0 25 -159 -53 0 -32 97 -3 -97 -47 0 -28 159 35 0 0 0 0 0 0 0zm0 0z"/>
     <path id="path4131" fill="white" d="M-2825 -3755c9,-53 13,-100 34,-91 7,-21 10,-31 13,-40 0,0 0,0 -6,0 -13,0 -25,22 -25,22l3 -19 -31 0 -22 128 34 0 0 0 0 0 0 0 0 0zm0 0z"/>
     <path id="path4149_1_" fill="white" d="M-2619 -3886c-22,0 -37,6 -37,6l-6 28c0,0 15,-6 37,-6 13,0 19,3 19,12 0,7 0,10 0,10 0,0 -10,0 -13,0 -31,0 -59,9 -59,47 0,31 19,37 31,37 22,0 35,-15 35,-15l-4 12 32 0 12 -91c0,-40 -34,-40 -47,-40l0 0 0 0 0 0 0 0zm10 75c0,6 -3,31 -25,31 -10,0 -13,-9 -13,-12 0,-10 6,-22 28,-22 7,0 7,3 10,3 0,0 -3,0 0,0l0 0 0 0 0 0zm0 0z"/>
     <path id="path4131_1_" fill="white" d="M-2544 -3755c10,-53 10,-100 35,-91 3,-21 6,-31 12,-40 0,0 -3,0 -6,0 -16,0 -28,22 -28,22l3 -19 -31 0 -19 128 34 0 0 0 0 0 0 0 0 0zm0 0z"/>
    </g>
   </g>
  </g>
  <g id="_2262565281104">
   <g id="Page-1_0">
    <g id="Visa">
     <rect id="Rectangle-20" fill="#F6F6F6" x="-5157" y="-4149" width="1200" height="600"/>
     <path id="Rectangle-1_1" fill="#265697" d="M-4048 -4214c-59,0 -694,0 -1050,0 -28,0 -59,28 -59,59l0 91 1200 0c0,0 0,137 0,-60 0,-62 -31,-90 -91,-90zm0 0z"/>
     <path id="Rectangle-1_2" fill="#D97B16" d="M-5157 -3614c0,0 0,0 0,59 0,59 31,91 90,91 335,0 960,0 1019,0 60,0 91,-32 91,-91l0 -59 -1200 0zm0 0z"/>
     <path id="Shape" fill="#265697" d="M-4320 -3992c-15,-7 -44,-13 -75,-13 -84,0 -144,44 -144,106 0,44 41,69 75,85 32,15 44,25 44,40 0,22 -28,32 -53,32 -34,0 -50,-7 -78,-19l-13 -3 -12 72c22,6 59,15 97,15 87,0 147,-44 147,-109 0,-35 -22,-63 -72,-85 -28,-15 -47,-25 -47,-40 0,-13 16,-28 50,-28 25,0 47,6 62,12l7 3 12 -68 0 0z"/>
     <path id="Shape_3" fill="#265697" d="M-4101 -3999l-66 0c-22,0 -37,7 -47,25l-125 294 91 0c0,0 13,-41 16,-50 9,0 97,0 109,0 3,13 9,50 9,50l79 0 -66 -319 0 0 0 0zm-106 203c6,-15 34,-87 34,-87 0,0 6,-19 9,-31l7 28c0,0 18,75 22,90l-72 0 0 0 0 0 0 0 0 0zm0 0z"/>
     <path id="Shape_4" fill="#265697" d="M-4714 -3680l53 -319 85 0 -53 319 -85 0zm0 0z"/>
     <path id="Shape_5" fill="#265697" d="M-4782 -3999l-85 216 -9 -44c-16,-50 -63,-106 -116,-134l75 278 91 0 131 -316 -87 0 0 0z"/>
     <path id="Shape_6" fill="#D97B16" d="M-4945 -3999l-134 0 -3 7c106,25 178,90 206,165l-28 -147c-7,-18 -22,-25 -41,-25l0 0z"/>
    </g>
   </g>
  </g>
  <g id="_2262565275696">
   <g>
    <g>
     <g>
      <path fill="#139AD6" d="M4205 -3860l-72 0c-3,0 -7,6 -10,9l-28 182c0,6 0,6 6,6l35 0c6,0 6,0 6,-6l9 -50c0,-7 4,-10 10,-10l25 0c47,0 75,-22 81,-68 3,-19 0,-35 -9,-44 -13,-13 -32,-19 -53,-19l0 0 0 0zm6 69c-3,25 -22,25 -41,25l-12 0 9 -47c0,-3 0,-3 6,-3l3 0c13,0 25,0 32,6 3,3 3,9 3,19l0 0z"/>
     </g>
    </g>
    <g>
     <g>
      <path fill="#263B80" d="M3695 -3860l-69 0c-6,0 -9,6 -9,9l-31 182c0,6 3,6 6,6l34 0c3,0 7,-3 10,-6l9 -50c0,-7 3,-10 9,-10l22 0c50,0 75,-22 82,-68 6,-19 0,-35 -7,-44 -12,-13 -31,-19 -56,-19l0 0 0 0zm9 69c-3,25 -21,25 -40,25l-13 0 10 -47c0,-3 3,-3 6,-3l3 0c13,0 25,0 31,6 3,3 7,9 3,19l0 0z"/>
     </g>
    </g>
    <g id="_2262565278256">
     <g>
      <path fill="#263B80" d="M3911 -3794l-35 0c-3,0 -6,3 -6,6l-3 9 0 -3c-9,-12 -25,-15 -41,-15 -37,0 -68,28 -75,68 -6,22 0,41 13,53 9,13 22,16 40,16 32,0 50,-19 50,-19l-3 10c0,6 3,6 7,6l31 0c3,0 9,-3 9,-6l19 -119c0,0 -6,-6 -6,-6l0 0 0 0zm-50 68c-3,19 -19,32 -38,32 -12,0 -19,-3 -25,-7 -3,-6 -6,-15 -6,-25 3,-18 19,-34 37,-34 13,0 19,3 25,9 7,7 7,16 7,25z"/>
     </g>
    </g>
    <g>
     <g>
      <path fill="#139AD6" d="M4414 -3794l-31 0c-3,0 -7,3 -7,6l-3 9 -3 -3c-6,-12 -22,-15 -37,-15 -38,0 -72,28 -78,68 -4,22 3,41 12,53 13,13 25,16 44,16 31,0 47,-19 47,-19l0 10c0,6 0,6 6,6l31 0c3,0 6,-3 10,-6l18 -119c-3,0 -3,-6 -9,-6l0 0zm-47 68c-3,19 -19,32 -41,32 -9,0 -18,-3 -21,-7 -4,-6 -7,-15 -7,-25 3,-18 19,-34 38,-34 9,0 15,3 22,9 9,7 12,16 9,25z"/>
     </g>
    </g>
    <g>
     <g>
      <path fill="#263B80" d="M4089 -3794l-35 0c-3,0 -6,3 -9,6l-44 69 -22 -66c-3,-3 -3,-6 -9,-6l-34 0c-3,0 -7,3 -7,9l38 110 -34 50c-4,3 0,9 3,9l34 0c3,0 6,-3 6,-3l116 -166c6,-6 3,-12 -3,-12l0 0z"/>
     </g>
     <g>
      <path fill="#139AD6" d="M4455 -3854l-29 188c0,3 0,6 7,6l28 0c3,0 9,-3 9,-9l28 -182c0,-3 0,-6 -6,-6l-31 0c-3,-3 -3,0 -6,3l0 0z"/>
     </g>
     <g>
      <path fill="#263B80" d="M3432 -3922c-12,-16 -40,-25 -78,-25l-103 0c-6,0 -12,6 -15,12l-41 272c0,6 3,12 9,12l63 0 15 -103 0 3c4,-6 10,-12 16,-12l31 0c60,0 107,-25 119,-91 0,-3 0,-6 0,-6 0,0 0,0 0,0 3,-28 0,-44 -16,-62l0 0z"/>
     </g>
    </g>
    <g>
     <path fill="#139AD6" d="M3448 -3860l0 0c0,0 0,3 0,6 -16,69 -59,91 -122,91l-31 0c-6,0 -13,6 -13,12l-21 129c0,3 3,6 9,6l53 0c6,0 13,-3 13,-10l0 0 9 -65 0 -3c0,-7 6,-13 12,-13l10 0c53,0 94,-19 103,-81 3,-25 3,-47 -9,-63 -4,-3 -7,-9 -13,-9l0 0z"/>
    </g>
    <g>
     <path fill="#232C65" d="M3432 -3866c0,0 -3,-3 -6,-3 0,0 -3,0 -6,-3 -6,0 -16,0 -25,0l-81 0c-3,0 -7,0 -7,0 -6,3 -6,6 -6,12l-19 106 0 3c4,-6 10,-12 16,-12l31 0c60,0 107,-25 119,-91 0,-3 0,-6 3,-6 -3,-3 -6,-6 -9,-6 -6,0 -6,0 -10,0l0 0z"/>
    </g>
   </g>
  </g>
  <g id="_2262571075168">
   <g id="Page-1_7">
    <g id="american-express">
     <path id="Rectangle-1_8" fill="#306FC5" d="M-674 -4160c-62,0 -706,0 -1066,0 -28,0 -59,31 -59,62l0 607c0,62 31,90 91,90 337,0 972,0 1034,0 60,0 91,-28 91,-90l0 -578c0,-60 -31,-91 -91,-91l0 0zm0 0z"/>
     <path id="Shape_9" fill="white" d="M-1696 -3882l-25 -56 -22 56 47 0zm519 -22c-6,3 -13,3 -19,3l-40 0 0 -31 40 0c6,0 13,0 19,3 3,0 6,7 6,13 0,6 -3,9 -6,12 0,0 3,-3 0,0l0 0 0 0zm297 22l-25 -56 -22 56 47 0 0 0 0 0 0 0zm-556 63l-35 0 0 -113 -50 113 -31 0 -50 -113 0 113 -69 0 -12 -32 -72 0 -16 32 -37 0 62 -144 53 0 57 137 0 -137 56 0 47 97 40 -97 57 0 0 144 0 0 0 0 0 0 0 0zm140 0l-115 0 0 -144 115 0 0 31 -81 0 0 25 81 0 0 28 -81 0 0 32 81 0 0 28 0 0 0 0 0 0 0 0zm163 -107c0,25 -16,38 -25,41 9,3 15,6 19,13 3,6 6,12 6,25l0 28 -38 0 0 -19c0,-6 3,-19 -3,-28 -6,-3 -12,-6 -25,-6l-37 0 0 53 -35 0 0 -144 78 0c19,0 32,0 41,6 13,6 19,16 19,31 0,0 0,-15 0,0l0 0 0 0zm56 107l-37 0 0 -144 37 0 0 144 0 0 0 0 0 0zm406 0l-50 0 -62 -107 0 107 -72 0 -13 -32 -71 0 -13 32 -41 0c-15,0 -37,-3 -50,-16 -12,-12 -18,-28 -18,-56 0,-19 3,-41 18,-56 13,-10 29,-16 54,-16l31 0 0 31 -31 0c-13,0 -19,3 -29,10 -3,6 -9,15 -9,31 0,15 3,28 9,34 7,6 16,6 25,6l16 0 47 -112 53 0 59 137 0 -137 50 0 63 100 0 -100 34 0 0 144 0 0 0 0 0 0 0 0zm-1137 28l59 0 13 -31 31 0 12 31 116 0 0 -25 9 25 63 0 9 -25 0 25 288 0 0 -53 6 0c3,0 3,3 3,9l0 44 150 0 0 -13c13,7 31,13 56,13l63 0 12 -31 29 0 15 31 119 0 0 -31 19 31 97 0 0 -200 -97 0 0 25 -13 -25 -97 0 0 25 -12 -25 -135 0c-21,0 -40,3 -56,12l0 -12 -90 0 0 12c-13,-9 -26,-12 -41,-12l-335 0 -21 53 -22 -53 -107 0 0 25 -12 -25 -88 0 -43 97 0 103 0 0 0 0zm1225 106l-63 0c-6,0 -9,0 -15,3 -3,3 -3,6 -3,10 0,6 3,9 6,12 3,0 9,0 12,0l19 0c19,3 31,6 41,13 0,0 3,3 3,3l0 -41zm0 94c-10,12 -25,19 -47,19l-66 0 0 -29 66 0c6,0 12,-3 12,-6 4,0 7,-3 7,-9 0,-3 -3,-6 -7,-10 0,0 -6,-3 -12,-3 -31,0 -72,3 -72,-43 0,-22 13,-44 50,-44l69 0 0 -28 -63 0c-22,0 -34,6 -43,12l0 -12 -94 0c-16,0 -35,3 -41,12l0 -12 -169 0 0 12c-15,-9 -37,-12 -46,-12l-113 0 0 12c-9,-9 -34,-12 -47,-12l-125 0 -28 31 -25 -31 -188 0 0 200 182 0 31 -32 28 32 109 0 0 -47 13 0c16,0 31,0 47,-6l0 53 94 0 0 -50 3 0c6,0 6,0 6,6l0 44 281 0c19,0 38,-3 47,-13l0 13 91 0c19,0 37,0 50,-10l0 -37 0 0 0 0 0 0 0 0zm-138 -56c7,6 10,15 10,31 0,31 -19,44 -53,44l-66 0 0 -29 66 0c6,0 12,-3 12,-6 3,0 6,-3 6,-9 0,-3 -3,-6 -6,-10 0,0 -6,-3 -12,-3 -32,0 -72,3 -72,-43 0,-22 15,-44 50,-44l68 0 0 31 -62 0c-6,0 -9,0 -13,3 -6,3 -6,6 -6,10 0,6 3,9 6,12 4,0 10,0 16,0l16 0c18,3 34,6 40,13 0,0 -6,-7 0,0l0 0 0 0 0 0zm-309 -10c-6,3 -13,3 -19,3l-40 0 0 -31 40 0c6,0 13,0 19,3 3,0 6,6 6,13 0,6 -3,9 -6,12 0,0 3,-3 0,0l0 0 0 0zm19 19c9,3 15,6 18,12 4,7 7,13 7,25l0 29 -35 0 0 -16c0,-9 0,-22 -6,-28 -6,-6 -12,-6 -25,-6l-37 0 0 50 -35 0 0 -144 78 0c19,0 32,3 41,6 12,9 19,16 19,34 0,22 -16,35 -25,38 0,0 9,-3 0,0l0 0 0 0zm43 -78l116 0 0 31 -81 0 0 25 78 0 0 31 -78 0 0 28 81 0 0 29 -116 0 0 -144 0 0 0 0 0 0 0 0zm-231 69l-44 0 0 -38 44 0c13,0 22,3 22,16 0,12 -9,22 -22,22l0 0 0 0 0 0zm-78 62l-53 -59 53 -57 0 116 0 0 0 0 0 0zm-138 -16l-84 0 0 -28 75 0 0 -31 -75 0 0 -25 88 0 37 41 -41 43 0 0 0 0 0 0 0 0zm276 -68c0,40 -32,50 -63,50l-41 0 0 47 -68 0 -41 -47 -44 47 -137 0 0 -144 137 0 44 47 44 -47 109 0c28,0 60,9 60,47 0,0 0,-38 0,0l0 0 0 0 0 0zm0 0z"/>
    </g>
   </g>
  </g>
  <g id="_2262571071104">
   <path fill="white" d="M76 -3760c0,-25 -4,-162 3,-181l31 0 0 181 -34 0zm422 -187c121,-19 153,171 28,187 -122,19 -157,-166 -28,-187zm-591 6c34,-3 78,-3 106,15 72,41 66,191 -109,166l3 -181zm1012 0c41,0 91,-6 110,25 9,15 9,37 3,53 -9,19 -16,19 -31,28l-3 0c12,22 47,63 53,75 -50,3 -38,6 -66,-34 -6,-7 -9,-13 -12,-19 -13,-19 -10,-16 -19,-19l0 72 -35 0 0 -181 0 0zm-31 100l-59 3 0 47 50 0c12,0 6,0 12,3l0 28 -100 0 0 -181 100 0 0 31 -65 0 0 41 62 0 0 28 0 0zm-487 75c-38,12 -66,15 -100,-10 -57,-37 -54,-121 3,-159 34,-19 62,-12 97,-3l0 41c-13,-4 -16,-13 -32,-16 -37,-9 -71,19 -71,59 -4,32 12,47 31,57 12,6 25,9 40,6 7,0 13,-3 16,-6l16 -10 0 41 0 0zm-257 -38c13,3 0,0 10,7 3,3 6,6 9,6 19,15 53,9 53,-16 0,-25 -50,-31 -65,-47 -44,-40 12,-125 93,-65 -3,6 -12,15 -15,22 -10,-4 -3,0 -7,-4 -9,-6 -21,-15 -40,-6 -16,6 -16,25 0,31 31,19 59,16 69,50 15,63 -63,113 -122,44 3,-12 9,-15 15,-22l0 0zm907 -140c6,-7 6,-3 15,-3 4,12 4,12 0,28 -34,6 -34,-19 -15,-25zm-372 190l-78 -187 34 0c9,9 47,103 50,122l16 -35c40,-100 25,-87 75,-87 -7,19 -72,178 -82,187l-15 0 0 0zm-525 360c34,-3 103,-19 134,-28 260,-54 541,-154 769,-285 16,-9 34,-22 50,-31 3,-31 0,-285 0,-341 0,-81 -3,-87 -84,-87l-1032 0c-159,0 -134,-10 -134,212 0,72 0,482 3,516 3,59 72,47 125,47 47,0 131,3 169,-3l0 0z"/>
   <path fill="#E6772F" d="M154 -3394c15,6 684,3 806,3 166,0 147,16 147,-181 0,-44 6,-129 0,-166 -16,9 -34,22 -50,31 -228,131 -509,231 -769,285 -31,9 -100,25 -134,28l0 0z"/>
   <path fill="#CACACA" d="M1107 -3738c6,37 0,122 0,166 0,197 19,181 -147,181 -122,0 -791,3 -806,-3 -38,6 -122,3 -169,3 -53,0 -122,12 -125,-47 -3,-34 -3,-444 -3,-516 0,-222 -25,-212 134,-212l1032 0c81,0 84,6 84,87 0,56 3,310 0,341l0 0zm-1256 -388l0 691c0,31 28,50 46,50l1166 0c32,0 57,-25 57,-56l0 -675c0,-32 -25,-60 -57,-60l-1166 0c-21,0 -46,28 -46,50l0 0z"/>
   <path fill="#E6772F" d="M498 -3947c-129,21 -94,206 28,187 125,-16 93,-206 -28,-187z"/>
   <path fill="#1A1919" d="M-59 -3910c47,-3 78,16 78,63 0,40 -34,59 -78,59l0 -122zm-37 150c175,25 181,-125 109,-166 -28,-18 -72,-18 -106,-15l-3 181z"/>
   <path fill="#1A1919" d="M954 -3913c25,0 47,3 47,28 0,25 -22,28 -47,28l0 -56 0 0zm-35 153l35 0 0 -72c9,3 6,0 19,19 3,6 6,12 12,19 28,40 16,37 66,34 -6,-12 -41,-53 -53,-75l3 0c15,-9 22,-9 31,-28 6,-16 6,-38 -3,-53 -19,-31 -69,-25 -110,-25l0 181 0 0z"/>
   <path fill="#1A1919" d="M679 -3754l15 0c10,-9 75,-168 82,-187 -50,0 -35,-13 -75,87l-16 35c-3,-19 -41,-113 -50,-122l-34 0 78 187 0 0z"/>
   <polygon fill="#1A1919" points="891,-3788 826,-3791 826,-3838 888,-3841 888,-3869 826,-3869 826,-3910 891,-3910 891,-3941 791,-3941 791,-3760 891,-3760 "/>
   <path fill="#1A1919" d="M144 -3804c-6,7 -12,10 -15,22 59,69 137,19 122,-44 -10,-34 -38,-31 -69,-50 -16,-6 -16,-25 0,-31 19,-9 31,0 40,6 4,4 -3,0 7,4 3,-7 12,-16 15,-22 -81,-60 -137,25 -93,65 15,16 65,22 65,47 0,25 -34,31 -53,16 -3,0 -6,-3 -9,-6 -10,-7 3,-4 -10,-7l0 0z"/>
   <path fill="#1A1919" d="M401 -3766l0 -41 -16 10c-3,3 -9,6 -16,6 -15,3 -28,0 -40,-6 -19,-10 -35,-25 -31,-57 0,-40 34,-68 71,-59 16,3 19,12 32,16l0 -41c-35,-9 -63,-16 -97,3 -57,38 -60,122 -3,159 34,25 62,22 100,10l0 0z"/>
   <path fill="#FEFEFE" d="M-59 -3788c44,0 78,-19 78,-59 0,-47 -31,-66 -78,-63l0 122z"/>
   <path fill="#1A1919" d="M76 -3760l34 0 0 -181 -31 0c-7,19 -3,156 -3,181z"/>
   <path fill="#FEFEFE" d="M954 -3857c25,0 47,-3 47,-28 0,-25 -22,-28 -47,-28l0 56 0 0z"/>
   <path fill="#6C6B6B" d="M1051 -3944c9,0 15,0 15,9 0,19 0,3 -6,9l-3 -6c0,-3 0,-6 0,-6 0,-3 0,-3 -3,-3l-6 0c6,0 3,3 3,-3l0 0zm0 0c-19,6 -19,31 15,25 4,-16 4,-16 0,-28 -9,0 -9,-4 -15,3z"/>
   <path fill="#AAA9A9" d="M891 -3788c-6,-3 0,-3 -12,-3l-50 0 0 -47 59 -3 -62 3 0 47 65 3 0 0z"/>
   <path fill="gainsboro" d="M1051 -3944c0,6 3,3 -3,3l6 0c3,0 3,0 3,3 0,0 0,3 0,6l3 6c6,-6 6,10 6,-9 0,-9 -6,-9 -15,-9l0 0z"/>
  </g>
  <g id="_2262571064224">
   <g id="round-rect">
    <g id="dinner_club">
     <path id="Rectangle-2" fill="#F4F4F4" d="M2697 -4171c-62,0 -725,0 -1094,0 -31,0 -62,31 -62,63 0,187 0,562 0,625 0,62 31,93 93,93 351,0 1001,0 1063,0 63,0 94,-31 94,-93 0,-63 0,-388 0,-594 0,-63 -31,-94 -94,-94l0 0z"/>
     <g id="logo">
      <path id="Shape_10" fill="#4186CD" d="M2203 -3686c97,0 182,-79 182,-172 0,-104 -85,-175 -182,-175l-81 0c-97,0 -175,71 -175,175 0,93 78,172 175,172l81 0 0 0z"/>
      <path id="Shape_11" fill="white" d="M2122 -4021c-87,0 -159,72 -159,159 0,91 72,163 159,163 88,0 159,-72 159,-163 0,-87 -71,-159 -159,-159l0 0zm-97 156l0 0c0,-40 25,-78 63,-93l0 187c-38,-12 -63,-50 -63,-94l0 0zm131 94l0 0 0 -187c38,15 63,53 63,93 0,44 -25,82 -63,94l0 0z"/>
      <g id="text">
       <path id="Shape_12" fill="#211E1F" d="M1816 -3630c0,-13 -6,-13 -13,-13l0 -3c7,0 13,0 19,0 6,0 16,0 28,0 41,0 63,28 63,56 0,16 -10,54 -66,54 -9,0 -16,0 -25,0 -6,0 -12,0 -19,0l0 -4c10,0 13,0 13,-12l0 -78 0 0 0 0zm12 75l0 0c0,12 10,12 19,12 34,0 44,-25 44,-47 0,-28 -19,-50 -50,-50 -6,0 -10,0 -13,0l0 85 0 0 0 0z"/>
       <path id="Shape_13" fill="#211E1F" d="M1913 -3540l3 0c6,0 9,0 9,-6l0 -40c0,-7 -3,-7 -9,-10l0 -3c6,-3 15,-3 15,-6 4,0 4,0 4,0 3,0 3,0 3,3l0 56c0,6 3,6 6,6l3 0 0 4c-6,0 -9,0 -16,0 -6,0 -12,0 -18,0l0 -4 0 0 0 0 0 0zm15 -93l0 0c-6,0 -9,-3 -9,-7 0,-3 3,-6 9,-6 3,0 7,3 7,6 0,4 -4,7 -7,7l0 0z"/>
       <path id="Shape_14" fill="#211E1F" d="M1966 -3583c0,-7 -3,-10 -10,-13l0 -3c7,0 13,-3 19,-6 0,0 3,0 3,3l0 9c7,-6 16,-12 25,-12 13,0 19,9 19,22l0 37c0,6 3,6 6,6l3 0 0 4c-6,0 -12,0 -15,0 -6,0 -13,0 -19,0l0 -4 3 0c6,0 10,0 10,-6l0 -37c0,-10 -7,-13 -16,-13 -3,0 -13,3 -16,6l0 44c0,6 3,6 7,6l3 0 0 4c-7,0 -13,0 -16,0 -6,0 -12,0 -19,0l0 -4 3 0c7,0 10,0 10,-6l0 -37 0 0 0 0 0 0z"/>
       <path id="Shape_15" fill="#211E1F" d="M2044 -3577c0,3 0,6 0,9 0,16 12,28 25,28 9,0 16,-3 22,-9l3 3c-9,10 -19,19 -31,19 -25,0 -32,-25 -32,-38 0,-31 22,-40 35,-40 12,0 28,9 28,25 0,3 0,3 0,3l-3 0 -47 0 0 0 0 0zm31 -6l0 0c3,0 3,-3 3,-3 0,-7 -3,-13 -12,-13 -13,0 -19,6 -22,16l31 0 0 0z"/>
       <path id="Shape_16" fill="#211E1F" d="M2094 -3540l3 0c3,0 6,0 6,-6l0 -40c0,-7 -3,-7 -6,-7l0 -3c9,-6 16,-9 16,-9 3,0 3,0 3,3l0 12 0 0c3,-6 9,-15 19,-15 3,0 6,3 6,9 0,3 0,6 -6,6 -4,0 -4,-3 -10,-3 -3,0 -9,3 -9,13l0 34c0,6 3,6 6,6l9 0 0 4c-9,0 -15,0 -21,0 -7,0 -10,0 -16,0l0 -4 0 0 0 0 0 0z"/>
       <path id="Shape_17" fill="#211E1F" d="M2153 -3552c0,9 7,19 19,19 9,0 13,-7 13,-13 0,-19 -35,-12 -35,-37 0,-10 6,-22 25,-22 6,0 13,3 19,6l0 16 -3 0c-3,-10 -6,-16 -19,-16 -6,0 -12,3 -12,9 0,19 37,13 37,41 0,9 -9,22 -28,22 -6,0 -13,-3 -19,-6l0 -19 3 0 0 0 0 0z"/>
       <path id="Shape_18" fill="#211E1F" d="M2338 -3615l-7 0c-3,-18 -15,-28 -31,-28 -19,0 -44,13 -44,53 0,32 22,57 44,57 16,0 28,-13 31,-28l7 0 -7 25c-6,3 -21,9 -34,9 -34,0 -56,-25 -56,-63 0,-34 28,-56 56,-56 13,0 25,3 38,10l3 21 0 0z"/>
       <path id="Shape_19" fill="#211E1F" d="M2344 -3540l3 0c3,0 6,0 6,-6l0 -84c0,-10 0,-10 -6,-13l0 -3c6,0 13,-3 16,-6 0,0 3,0 3,0 0,0 0,0 0,0l0 106c0,6 6,6 9,6l3 0 0 4c-6,0 -12,0 -15,0 -6,0 -13,0 -19,0l0 -4 0 0 0 0 0 0z"/>
       <path id="Shape_20" fill="#211E1F" d="M2444 -3546c0,3 3,3 3,3 3,0 6,0 6,0l0 3c-6,0 -18,4 -21,4l0 0 0 -13c-10,9 -16,13 -29,13 -6,0 -15,-4 -15,-16l0 -41c0,-3 0,-6 -10,-9l0 -3c7,0 19,0 19,0 3,0 3,0 3,6l0 38c0,6 0,18 13,18 6,0 12,-6 19,-9l0 -41c0,-3 -7,-6 -13,-6l0 -3c13,-3 22,-3 25,-3 0,0 0,0 0,3l0 56 0 0 0 0 0 0z"/>
       <path id="Shape_21" fill="#211E1F" d="M2475 -3593c7,-6 16,-12 25,-12 19,0 32,19 32,34 0,22 -16,44 -41,44 -13,0 -19,-6 -22,-6l-3 3 -6 -3c3,-10 3,-19 3,-28l0 -69c0,-10 -3,-10 -10,-13l0 -3c7,0 16,-3 19,-6 0,0 3,0 3,0 0,0 0,0 0,0l0 59 0 0 0 0 0 0zm0 41l0 0c0,6 7,16 16,16 19,0 25,-16 25,-32 0,-15 -13,-31 -25,-31 -6,0 -13,6 -16,9l0 38 0 0 0 0 0 0z"/>
      </g>
     </g>
    </g>
   </g>
  </g>
 </g>
</svg>
