<?xml version="1.0" encoding="UTF-8"?>
<!DOCTYPE svg PUBLIC "-//W3C//DTD SVG 1.1//EN" "http://www.w3.org/Graphics/SVG/1.1/DTD/svg11.dtd">
<!-- Creator: CorelDRAW X7 -->
<svg xmlns="http://www.w3.org/2000/svg" xml:space="preserve" width="1772px" height="1181px" version="1.1" shape-rendering="geometricPrecision" text-rendering="geometricPrecision" image-rendering="optimizeQuality" fill-rule="evenodd" clip-rule="evenodd"
viewBox="0 0 1772 1181"
 xmlns:xlink="http://www.w3.org/1999/xlink"
 enable-background="new 0 0 64 64"
 xmlns:sketch="http://www.bohemiancoding.com/sketch/ns">
 <g id="Layer_x0020_1">
  <metadata id="CorelCorpID_0Corel-Layer"/>
  <g id="_2262565287504">
   <path fill="#FDCB00" d="M-363 694c7,-3 9,6 3,8 -6,2 -8,-6 -3,-8zm-38 34l4 0 8 -32 20 0 -1 7 -13 0 -1 9 11 0 -1 7 -12 0 -2 9 16 1 5 -23 8 -1 -5 24 6 0 5 -23 6 -1 1 3c4,-3 13,-6 16,1 2,5 -1,14 -2,19l4 1c0,-13 9,-13 20,-13 -1,-8 -9,-4 -14,-4l1 -6c23,-4 22,4 18,23l4 0 5 -23 7 -1c1,2 1,1 1,3 4,-3 13,-6 16,1 2,5 -1,14 -2,19l7 0c-5,-8 -1,-27 21,-22l-1 7c-4,-1 -8,-2 -11,1 -4,4 -3,8 -1,12 3,1 6,1 9,0l1 2 5 0c-6,-11 4,-25 17,-23 7,1 10,6 9,14 -1,5 -5,3 -20,3 2,7 7,6 14,5l1 1 6 0 -3 17 -292 1 3 -18 7 0 7 -32c11,-2 24,-1 23,12 0,12 -9,14 -21,14l-1 7 24 -1c-6,-11 2,-22 13,-23 17,-2 15,14 10,23l4 1c0,-1 0,-1 0,-1 0,0 1,-1 1,-1 0,0 0,0 0,0 5,1 8,2 12,-1 -1,-6 -14,-4 -9,-15 2,-7 12,-6 19,-5l-1 6c-5,-1 -8,-2 -11,1 1,7 12,2 9,16l5 0c-1,-5 3,-25 5,-30l8 -1 -1 7 8 0 -1 7 -8 0c-2,3 -4,11 -3,15l7 1zm197 -17l-5 0 5 -24 25 0 -4 18 18 0 -4 24 -18 0 -4 17 -21 0 1 -6 14 -1 4 -17 18 0 3 -11 -18 0 3 -18 -12 0 -3 14c-1,4 0,3 -2,4zm-321 -99l0 193c0,15 15,29 30,29l312 0c17,0 31,-13 31,-30l0 -191c0,-15 -14,-29 -28,-29l-316 0c-15,0 -29,14 -29,28z"/>
   <path fill="#FEFEFE" d="M-221 728c-2,7 -4,7 -11,6 -5,0 -8,-2 -10,-6l-5 0c-1,4 -1,4 -3,5 -1,1 -4,1 -6,1 -6,-1 -7,-2 -9,-6l-7 0 -1 5 -8 0 1 -5 -10 1 -2 4 -7 0 0 -4 -4 0 -2 4c-4,1 -3,0 -7,0 0,0 0,0 0,0l-2 0c-5,1 -11,3 -14,-4l-4 -1 -1 5c-3,1 -5,1 -8,0l1 -5 -10 1 -1 4 -8 0 1 -4 -6 0 -1 4 -8 0 1 -4 -16 -1 -1 5 -8 0 0 -5 -4 0c-1,5 -1,7 -8,6 -4,-1 -6,-2 -7,-5l-5 0c-6,7 -11,5 -21,4l1 -4 -4 -1c-7,7 -17,10 -23,0l-24 1 -1 4 -8 0 1 -5 -7 0 -3 18 292 -1 3 -17 -6 0z"/>
   <path fill="#FF0100" d="M-204 711c2,-1 1,0 2,-4l3 -14 12 0 -3 18 18 0 -3 11 -18 0 -4 17 -14 1 -1 6 21 0 4 -17 18 0 4 -24 -18 0 4 -18 -25 0 -5 24 5 0z"/>
   <path fill="black" d="M-489 715c0,-2 2,-10 2,-11 2,-3 6,-1 8,0 2,9 -1,11 -10,11zm-11 13l-1 5 8 0 1 -4 1 -7c12,0 21,-2 21,-14 1,-13 -12,-14 -23,-12l-7 32z"/>
   <path fill="black" d="M-456 712c9,-4 7,14 1,15 -9,3 -8,-12 -1,-15zm-12 16c6,10 16,7 23,0 5,-9 7,-25 -10,-23 -11,1 -19,12 -13,23z"/>
   <path fill="black" d="M-235 717c1,-3 2,-6 6,-6 4,-1 5,2 5,6l-4 0 -3 0 -4 0zm-7 11c2,4 5,6 10,6 7,1 9,1 11,-6l-1 -1c-7,1 -12,2 -14,-5 15,0 19,2 20,-3 1,-8 -2,-13 -9,-14 -13,-2 -23,12 -17,23z"/>
   <path fill="black" d="M-358 729l-1 4 8 0 1 -4c1,-7 3,-22 11,-16 2,1 1,-1 1,3l-2 12 -1 5c3,1 5,1 8,0l1 -5c1,-5 4,-14 2,-19 -3,-7 -12,-4 -16,-1l-1 -3 -6 1 -5 23z"/>
   <path fill="black" d="M-299 729l0 4 7 0 2 -4c1,-7 3,-22 11,-16 2,2 1,-1 1,3l-2 12 -1 5 8 0 1 -5c1,-5 4,-14 2,-19 -3,-7 -12,-4 -16,-1 0,-2 0,-1 -1,-3l-7 1 -5 23z"/>
   <path fill="black" d="M-319 728c-3,-7 3,-7 9,-7 0,6 -3,8 -9,7zm-9 1c3,7 9,5 14,4l2 0c0,0 0,0 0,0 4,0 3,1 7,0l2 -4c4,-19 5,-27 -18,-23l-1 6c5,0 13,-4 14,4 -11,0 -20,0 -20,13z"/>
   <polygon fill="black" points="-397,728 -397,733 -389,733 -388,728 -386,719 -374,719 -373,712 -384,712 -383,703 -370,703 -369,696 -389,696 "/>
   <path fill="black" d="M-441 729l-1 4c10,1 15,3 21,-4 3,-14 -8,-9 -9,-16 3,-3 6,-2 11,-1l1 -6c-7,-1 -17,-2 -19,5 -5,11 8,9 9,15 -4,3 -7,2 -12,1 0,0 0,0 0,0 0,0 -1,1 -1,1 0,0 0,0 0,1z"/>
   <path fill="black" d="M-416 729c1,3 3,4 7,5 7,1 7,-1 8,-6l-7 -1c-1,-4 1,-12 3,-15l8 0 1 -7 -8 0 1 -7 -8 1c-2,5 -6,25 -5,30z"/>
   <path fill="black" d="M-265 728c2,4 3,5 9,6 2,0 5,0 6,-1 2,-1 2,-1 3,-5l-1 -2c-3,1 -6,1 -9,0 -2,-4 -3,-8 1,-12 3,-3 7,-2 11,-1l1 -7c-22,-5 -26,14 -21,22z"/>
   <polygon fill="black" points="-372,729 -373,733 -365,733 -364,729 -359,705 -367,706 "/>
   <path fill="#FDCB00" d="M-290 729l10 -1 2 -12c0,-4 1,-1 -1,-3 -8,-6 -10,9 -11,16z"/>
   <path fill="#FDCB00" d="M-350 729l10 -1 2 -12c0,-4 1,-2 -1,-3 -8,-6 -10,9 -11,16z"/>
   <path fill="#FDCB00" d="M-456 712c-7,3 -8,18 1,15 6,-1 8,-19 -1,-15z"/>
   <path fill="#FDCC00" d="M-489 715c9,0 12,-2 10,-11 -2,-1 -6,-3 -8,0 0,1 -2,9 -2,11z"/>
   <path fill="black" d="M-363 694c-5,2 -3,10 3,8 6,-2 4,-11 -3,-8z"/>
   <path fill="#FDCC00" d="M-319 728c6,1 9,-1 9,-7 -6,0 -12,0 -9,7z"/>
   <path fill="#FDCD00" d="M-235 717l4 0 3 0 4 0c0,-4 -1,-7 -5,-6 -4,0 -5,3 -6,6z"/>
  </g>
  <g id="_2262565284144">
   <g id="Page-1">
    <g id="Master">
     <path id="Rectangle-1" fill="#265697" d="M916 589c-19,0 -223,0 -336,0 -10,0 -19,10 -19,19l0 192c0,19 9,29 29,29 107,0 307,0 326,0 19,0 28,-10 28,-29l0 -182c0,-19 -9,-29 -28,-29zm0 0z"/>
     <path id="path2268" fill="#DFAC16" d="M919 710c0,56 -44,101 -99,101 -56,0 -100,-45 -100,-101l0 0c0,-56 44,-101 100,-101 55,0 99,45 99,101l0 0c0,0 0,0 0,0l0 0 0 0zm0 0z"/>
     <path id="path1350" fill="#BF3126" d="M685 609c-55,0 -99,46 -99,101 0,56 45,101 100,101 26,0 49,-10 67,-26 0,0 0,0 0,0l0 0c4,-4 7,-7 10,-11l-20 0c-3,-4 -6,-7 -8,-11l35 0c3,-3 4,-7 6,-10l-47 0c-1,-4 -3,-7 -4,-11l55 0c4,-10 6,-21 6,-32 0,-7 -1,-15 -3,-22l-61 0c1,-3 2,-7 3,-10l55 0c-1,-4 -2,-8 -4,-11l-47 0c2,-4 4,-7 6,-11l35 0c-2,-3 -5,-7 -7,-10l-20 0c3,-4 6,-7 10,-11 -18,-16 -41,-26 -67,-26 -1,0 -1,0 -1,0 0,0 0,0 0,0l0 0 0 0zm0 0z"/>
     <path id="path4157" fill="white" d="M722 736l1 -9c-1,0 -2,0 -3,0 -4,0 -4,-2 -4,-4l3 -18 6 0 1 -10 -5 0 1 -7 -11 0c0,1 -6,36 -6,40 0,6 4,9 9,9 4,0 7,-1 8,-1 0,0 -1,0 0,0l0 0 0 0zm0 0z"/>
     <path id="path4155" fill="white" d="M725 718c0,15 10,19 18,19 8,0 12,-2 12,-2l1 -10c0,0 -6,3 -11,3 -11,0 -9,-9 -9,-9l21 0c0,0 2,-7 2,-10 0,-7 -4,-16 -15,-16 -11,0 -19,12 -19,25 0,0 0,-13 0,0l0 0 0 0zm19 -15c6,0 4,7 4,7l-11 0c0,0 1,-7 7,-7 0,0 -6,0 0,0l0 0 0 0zm0 0z"/>
     <path id="path4151" fill="white" d="M811 736l2 -12c0,0 -5,3 -9,3 -8,0 -11,-6 -11,-12 0,-13 7,-20 14,-20 6,0 10,3 10,3l2 -11c0,0 -7,-3 -12,-3 -13,0 -25,11 -25,31 0,13 7,22 20,22 3,0 9,-1 9,-1l0 0 0 0 0 0zm0 0z"/>
     <path id="path4149" fill="white" d="M663 694c-7,0 -13,2 -13,2l-1 9c0,0 4,-2 11,-2 4,0 7,1 7,4 0,2 0,3 0,3 0,0 -3,0 -5,0 -9,0 -19,3 -19,15 0,10 7,12 11,12 7,0 10,-5 11,-5l-1 4 10 0 4 -29c0,-13 -11,-13 -15,-13l0 0 0 0 0 0zm2 24c1,2 -1,10 -7,10 -3,0 -4,-3 -4,-4 0,-3 1,-7 9,-7 2,0 2,1 2,1 0,0 0,0 0,0l0 0 0 0zm0 0z"/>
     <path id="path4145" fill="white" d="M688 737c2,0 16,0 16,-14 0,-13 -13,-11 -13,-16 0,-3 2,-3 6,-3 1,0 7,0 7,0l2 -9c0,0 -4,-1 -10,-1 -8,0 -16,3 -16,14 0,12 13,11 13,16 0,3 -4,4 -6,4 -5,0 -10,-2 -10,-2l-1 9c0,1 3,2 12,2 0,0 -9,0 0,0l0 0 0 0zm0 0z"/>
     <path id="path4139" fill="white" d="M899 685l-2 15c0,0 -4,-6 -11,-6 -9,0 -17,12 -17,25 0,9 4,18 13,18 6,0 10,-5 10,-5l-1 4 10 0 9 -51 -11 0 0 0 0 0 0 0zm-5 28c0,6 -3,13 -9,13 -3,0 -5,-3 -5,-8 0,-8 4,-14 8,-14 4,0 6,3 6,9 0,0 0,-6 0,0l0 0 0 0zm0 0z"/>
     <path id="path4133" fill="white" d="M606 736l6 -38 1 38 7 0 14 -38 -6 38 11 0 8 -51 -17 0 -10 31 -1 -31 -15 0 -9 51 11 0 0 0 0 0 0 0zm0 0z"/>
     <path id="path4131" fill="white" d="M769 736c3,-17 4,-32 11,-29 2,-7 3,-10 4,-13 0,0 0,0 -2,0 -4,0 -8,7 -8,7l1 -6 -10 0 -7 41 11 0 0 0 0 0 0 0zm0 0z"/>
     <path id="path4149_1_" fill="white" d="M835 694c-7,0 -12,2 -12,2l-2 9c0,0 5,-2 12,-2 4,0 6,1 6,4 0,2 0,3 0,3 0,0 -3,0 -4,0 -10,0 -19,3 -19,15 0,10 6,12 10,12 7,0 11,-5 11,-5l-1 4 10 0 4 -29c0,-13 -11,-13 -15,-13l0 0 0 0 0 0zm3 24c0,2 -1,10 -8,10 -3,0 -4,-3 -4,-4 0,-3 2,-7 9,-7 2,0 2,1 3,1 0,0 -1,0 0,0l0 0 0 0zm0 0z"/>
     <path id="path4131_1_" fill="white" d="M859 736c3,-17 3,-32 11,-29 1,-7 2,-10 4,-13 0,0 -1,0 -2,0 -5,0 -9,7 -9,7l1 -6 -10 0 -6 41 11 0 0 0 0 0 0 0zm0 0z"/>
    </g>
   </g>
  </g>
  <g id="_2262565281104">
   <g id="Page-1_0">
    <g id="Visa">
     <rect id="Rectangle-20" fill="#F6F6F6" x="15" y="610" width="384" height="192"/>
     <path id="Rectangle-1_1" fill="#265697" d="M370 589c-19,0 -222,0 -336,0 -9,0 -19,9 -19,19l0 29 384 0c0,0 0,44 0,-19 0,-20 -10,-29 -29,-29zm0 0z"/>
     <path id="Rectangle-1_2" fill="#D97B16" d="M15 781c0,0 0,0 0,19 0,19 10,29 29,29 107,0 307,0 326,0 19,0 29,-10 29,-29l0 -19 -384 0zm0 0z"/>
     <path id="Shape" fill="#265697" d="M283 660c-5,-2 -14,-4 -24,-4 -27,0 -46,14 -46,34 0,14 13,22 24,27 10,5 14,8 14,13 0,7 -9,10 -17,10 -11,0 -16,-2 -25,-6l-4 -1 -4 23c7,2 19,5 31,5 28,0 47,-14 47,-35 0,-11 -7,-20 -23,-27 -9,-5 -15,-8 -15,-13 0,-4 5,-9 16,-9 8,0 15,2 20,4l2 1 4 -22z"/>
     <path id="Shape_3" fill="#265697" d="M353 658l-21 0c-7,0 -12,2 -15,8l-40 94 29 0c0,0 4,-13 5,-16 3,0 31,0 35,0 1,4 3,16 3,16l25 0 -21 -102 0 0zm-34 65c2,-5 11,-28 11,-28 0,0 2,-6 3,-10l2 9c0,0 6,24 7,29l-23 0 0 0 0 0 0 0zm0 0z"/>
     <path id="Shape_4" fill="#265697" d="M157 760l17 -102 27 0 -17 102 -27 0zm0 0z"/>
     <path id="Shape_5" fill="#265697" d="M135 658l-27 69 -3 -14c-5,-16 -20,-34 -37,-43l24 89 29 0 42 -101 -28 0z"/>
     <path id="Shape_6" fill="#D97B16" d="M83 658l-43 0 -1 2c34,8 57,29 66,53l-9 -47c-2,-6 -7,-8 -13,-8z"/>
    </g>
   </g>
  </g>
  <g id="_2262565275696">
   <g>
    <g>
     <g>
      <path fill="#139AD6" d="M3049 683l-23 0c-1,0 -2,2 -3,3l-9 58c0,2 0,2 2,2l11 0c2,0 2,0 2,-2l3 -16c0,-2 1,-3 3,-3l8 0c15,0 24,-7 26,-22 1,-6 0,-11 -3,-14 -4,-4 -10,-6 -17,-6l0 0zm2 22c-1,8 -7,8 -13,8l-4 0 3 -15c0,-1 0,-1 2,-1l1 0c4,0 8,0 10,2 1,1 1,3 1,6z"/>
     </g>
    </g>
    <g>
     <g>
      <path fill="#263B80" d="M2886 683l-22 0c-2,0 -3,2 -3,3l-10 58c0,2 1,2 2,2l11 0c1,0 2,-1 3,-2l3 -16c0,-2 1,-3 3,-3l7 0c16,0 24,-7 26,-22 2,-6 0,-11 -2,-14 -4,-4 -10,-6 -18,-6l0 0zm3 22c-1,8 -7,8 -13,8l-4 0 3 -15c0,-1 1,-1 2,-1l1 0c4,0 8,0 10,2 1,1 2,3 1,6z"/>
     </g>
    </g>
    <g id="_2262565278256">
     <g>
      <path fill="#263B80" d="M2955 704l-11 0c-1,0 -2,1 -2,2l-1 3 0 -1c-3,-4 -8,-5 -13,-5 -12,0 -22,9 -24,22 -2,7 0,13 4,17 3,4 7,5 13,5 10,0 16,-6 16,-6l-1 3c0,2 1,2 2,2l10 0c1,0 3,-1 3,-2l6 -38c0,0 -2,-2 -2,-2l0 0zm-16 22c-1,6 -6,10 -12,10 -4,0 -6,-1 -8,-2 -1,-2 -2,-5 -2,-8 1,-6 6,-11 12,-11 4,0 6,1 8,3 2,2 2,5 2,8z"/>
     </g>
    </g>
    <g>
     <g>
      <path fill="#139AD6" d="M3116 704l-10 0c-1,0 -2,1 -2,2l-1 3 -1 -1c-2,-4 -7,-5 -12,-5 -12,0 -23,9 -25,22 -1,7 1,13 4,17 4,4 8,5 14,5 10,0 15,-6 15,-6l0 3c0,2 0,2 2,2l10 0c1,0 2,-1 3,-2l6 -38c-1,0 -1,-2 -3,-2l0 0zm-15 22c-1,6 -6,10 -13,10 -3,0 -6,-1 -7,-2 -1,-2 -2,-5 -2,-8 1,-6 6,-11 12,-11 3,0 5,1 7,3 3,2 4,5 3,8z"/>
     </g>
    </g>
    <g>
     <g>
      <path fill="#263B80" d="M3012 704l-11 0c-1,0 -2,1 -3,2l-14 22 -7 -21c-1,-1 -1,-2 -3,-2l-11 0c-1,0 -2,1 -2,3l12 35 -11 16c-1,1 0,3 1,3l11 0c1,0 2,-1 2,-1l37 -53c2,-2 1,-4 -1,-4z"/>
     </g>
     <g>
      <path fill="#139AD6" d="M3129 685l-9 60c0,1 0,2 2,2l9 0c1,0 3,-1 3,-3l9 -58c0,-1 0,-2 -2,-2l-10 0c-1,-1 -1,0 -2,1z"/>
     </g>
     <g>
      <path fill="#263B80" d="M2802 663c-4,-5 -13,-8 -25,-8l-33 0c-2,0 -4,2 -5,4l-13 87c0,2 1,4 3,4l20 0 5 -33 0 1c1,-2 3,-4 5,-4l10 0c19,0 34,-8 38,-29 0,-1 0,-2 0,-2 0,0 0,0 0,0 1,-9 0,-14 -5,-20z"/>
     </g>
    </g>
    <g>
     <path fill="#139AD6" d="M2807 683l0 0c0,0 0,1 0,2 -5,22 -19,29 -39,29l-10 0c-2,0 -4,2 -4,4l-7 41c0,1 1,2 3,2l17 0c2,0 4,-1 4,-3l0 0 3 -21 0 -1c0,-2 2,-4 4,-4l3 0c17,0 30,-6 33,-26 1,-8 1,-15 -3,-20 -1,-1 -2,-3 -4,-3z"/>
    </g>
    <g>
     <path fill="#232C65" d="M2802 681c0,0 -1,-1 -2,-1 0,0 -1,0 -2,-1 -2,0 -5,0 -8,0l-26 0c-1,0 -2,0 -2,0 -2,1 -2,2 -2,4l-6 34 0 1c1,-2 3,-4 5,-4l10 0c19,0 34,-8 38,-29 0,-1 0,-2 1,-2 -1,-1 -2,-2 -3,-2 -2,0 -2,0 -3,0z"/>
    </g>
   </g>
  </g>
  <g>
   <g id="Page-1_7">
    <g id="american-express">
     <path id="Rectangle-1_8" fill="#306FC5" d="M1465 587c-20,0 -226,0 -341,0 -9,0 -19,10 -19,20l0 194c0,20 10,29 29,29 108,0 311,0 331,0 19,0 29,-9 29,-29l0 -185c0,-19 -10,-29 -29,-29zm0 0z"/>
     <path id="Shape_9" fill="white" d="M1138 676l-8 -18 -7 18 15 0zm166 -7c-2,1 -4,1 -6,1l-13 0 0 -10 13 0c2,0 4,0 6,1 1,0 2,2 2,4 0,2 -1,3 -2,4 0,0 1,-1 0,0l0 0 0 0zm95 7l-8 -18 -7 18 15 0 0 0 0 0 0 0zm-178 20l-11 0 0 -36 -16 36 -10 0 -16 -36 0 36 -22 0 -4 -10 -23 0 -5 10 -12 0 20 -46 17 0 18 44 0 -44 18 0 15 31 13 -31 18 0 0 46 0 0 0 0 0 0zm45 0l-37 0 0 -46 37 0 0 10 -26 0 0 8 26 0 0 9 -26 0 0 10 26 0 0 9 0 0 0 0 0 0zm52 -34c0,8 -5,12 -8,13 3,1 5,2 6,4 1,2 2,4 2,8l0 9 -12 0 0 -6c0,-2 1,-6 -1,-9 -2,-1 -4,-2 -8,-2l-12 0 0 17 -11 0 0 -46 25 0c6,0 10,0 13,2 4,2 6,5 6,10 0,0 0,-5 0,0l0 0 0 0zm18 34l-12 0 0 -46 12 0 0 46 0 0 0 0 0 0zm130 0l-16 0 -20 -34 0 34 -23 0 -4 -10 -23 0 -4 10 -13 0c-5,0 -12,-1 -16,-5 -4,-4 -6,-9 -6,-18 0,-6 1,-13 6,-18 4,-3 9,-5 17,-5l10 0 0 10 -10 0c-4,0 -6,1 -9,3 -1,2 -3,5 -3,10 0,5 1,9 3,11 2,2 5,2 8,2l5 0 15 -36 17 0 19 44 0 -44 16 0 20 32 0 -32 11 0 0 46 0 0 0 0 0 0zm-364 9l19 0 4 -10 10 0 4 10 37 0 0 -8 3 8 20 0 3 -8 0 8 92 0 0 -17 2 0c1,0 1,1 1,3l0 14 48 0 0 -4c4,2 10,4 18,4l20 0 4 -10 9 0 5 10 38 0 0 -10 6 10 31 0 0 -64 -31 0 0 8 -4 -8 -31 0 0 8 -4 -8 -43 0c-7,0 -13,1 -18,4l0 -4 -29 0 0 4c-4,-3 -8,-4 -13,-4l-107 0 -7 17 -7 -17 -34 0 0 8 -4 -8 -28 0 -14 31 0 33 0 0zm392 34l-20 0c-2,0 -3,0 -5,1 -1,1 -1,2 -1,3 0,2 1,3 2,4 1,0 3,0 4,0l6 0c6,1 10,2 13,4 0,0 1,1 1,1l0 -13zm0 30c-3,4 -8,6 -15,6l-21 0 0 -9 21 0c2,0 4,-1 4,-2 1,0 2,-1 2,-3 0,-1 -1,-2 -2,-3 0,0 -2,-1 -4,-1 -10,0 -23,1 -23,-14 0,-7 4,-14 16,-14l22 0 0 -9 -20 0c-7,0 -11,2 -14,4l0 -4 -30 0c-5,0 -11,1 -13,4l0 -4 -54 0 0 4c-5,-3 -12,-4 -15,-4l-36 0 0 4c-3,-3 -11,-4 -15,-4l-40 0 -9 10 -8 -10 -60 0 0 64 58 0 10 -10 9 10 35 0 0 -15 4 0c5,0 10,0 15,-2l0 17 30 0 0 -16 1 0c2,0 2,0 2,2l0 14 90 0c6,0 12,-1 15,-4l0 4 29 0c6,0 12,0 16,-3l0 -12 0 0 0 0 0 0zm-44 -18c2,2 3,5 3,10 0,10 -6,14 -17,14l-21 0 0 -9 21 0c2,0 4,-1 4,-2 1,0 2,-1 2,-3 0,-1 -1,-2 -2,-3 0,0 -2,-1 -4,-1 -10,0 -23,1 -23,-14 0,-7 5,-14 16,-14l22 0 0 10 -20 0c-2,0 -3,0 -4,1 -2,1 -2,2 -2,3 0,2 1,3 2,4 1,0 3,0 5,0l5 0c6,1 11,2 13,4 0,0 -2,-2 0,0l0 0 0 0zm-99 -3c-2,1 -4,1 -6,1l-13 0 0 -10 13 0c2,0 4,0 6,1 1,0 2,2 2,4 0,2 -1,3 -2,4 0,0 1,-1 0,0l0 0 0 0zm6 6c3,1 5,2 6,4 1,2 2,4 2,8l0 9 -11 0 0 -5c0,-3 0,-7 -2,-9 -2,-2 -4,-2 -8,-2l-12 0 0 16 -11 0 0 -46 25 0c6,0 10,1 13,2 4,3 6,5 6,11 0,7 -5,11 -8,12 0,0 3,-1 0,0l0 0 0 0zm14 -25l37 0 0 10 -26 0 0 8 25 0 0 10 -25 0 0 9 26 0 0 9 -37 0 0 -46 0 0 0 0 0 0zm-74 22l-14 0 0 -12 14 0c4,0 7,1 7,5 0,4 -3,7 -7,7l0 0 0 0 0 0zm-25 20l-17 -19 17 -18 0 37 0 0 0 0 0 0zm-44 -5l-27 0 0 -9 24 0 0 -10 -24 0 0 -8 28 0 12 13 -13 14 0 0 0 0 0 0zm88 -22c0,13 -10,16 -20,16l-13 0 0 15 -22 0 -13 -15 -14 15 -44 0 0 -46 44 0 14 15 14 -15 35 0c9,0 19,3 19,15 0,0 0,-12 0,0l0 0 0 0zm0 0z"/>
    </g>
   </g>
  </g>
  <g>
   <path fill="white" d="M1713 715c0,-8 -1,-52 1,-58l10 0 0 58 -11 0zm135 -60c39,-6 49,55 9,60 -39,6 -50,-53 -9,-60zm-189 2c11,-1 25,-1 34,5 23,13 21,61 -35,53l1 -58zm324 0c13,0 29,-2 35,8 3,5 3,12 1,17 -3,6 -5,6 -10,9l-1 0c4,7 15,20 17,24 -16,1 -12,2 -21,-11 -2,-2 -3,-4 -4,-6 -4,-6 -3,-5 -6,-6l0 23 -11 0 0 -58zm-10 32l-19 1 0 15 16 0c4,0 2,0 4,1l0 9 -32 0 0 -58 32 0 0 10 -21 0 0 13 20 0 0 9zm-156 24c-12,4 -21,5 -32,-3 -18,-12 -17,-39 1,-51 11,-6 20,-4 31,-1l0 13c-4,-1 -5,-4 -10,-5 -12,-3 -23,6 -23,19 -1,10 4,15 10,18 4,2 8,3 13,2 2,0 4,-1 5,-2l5 -3 0 13zm-82 -12c4,1 0,0 3,2 1,1 2,2 3,2 6,5 17,3 17,-5 0,-8 -16,-10 -21,-15 -14,-13 4,-40 30,-21 -1,2 -4,5 -5,7 -3,-1 -1,0 -2,-1 -3,-2 -7,-5 -13,-2 -5,2 -5,8 0,10 10,6 19,5 22,16 5,20 -20,36 -39,14 1,-4 3,-5 5,-7zm290 -45c2,-2 2,-1 5,-1 1,4 1,4 0,9 -11,2 -11,-6 -5,-8zm-119 61l-25 -60 11 0c3,3 15,33 16,39l5 -11c13,-32 8,-28 24,-28 -2,6 -23,57 -26,60l-5 0zm-168 115c11,-1 33,-6 43,-9 83,-17 173,-49 246,-91 5,-3 11,-7 16,-10 1,-10 0,-91 0,-109 0,-26 -1,-28 -27,-28l-330 0c-51,0 -43,-3 -43,68 0,23 0,154 1,165 1,19 23,15 40,15 15,0 42,1 54,-1z"/>
   <path fill="#E6772F" d="M1738 832c5,2 219,1 258,1 53,0 47,5 47,-58 0,-14 2,-41 0,-53 -5,3 -11,7 -16,10 -73,42 -163,74 -246,91 -10,3 -32,8 -43,9z"/>
   <path fill="#CACACA" d="M2043 722c2,12 0,39 0,53 0,63 6,58 -47,58 -39,0 -253,1 -258,-1 -12,2 -39,1 -54,1 -17,0 -39,4 -40,-15 -1,-11 -1,-142 -1,-165 0,-71 -8,-68 43,-68l330 0c26,0 27,2 27,28 0,18 1,99 0,109zm-402 -124l0 221c0,10 9,16 15,16l373 0c10,0 18,-8 18,-18l0 -216c0,-10 -8,-19 -18,-19l-373 0c-7,0 -15,9 -15,16z"/>
   <path fill="#E6772F" d="M1848 655c-41,7 -30,66 9,60 40,-5 30,-66 -9,-60z"/>
   <path fill="#1A1919" d="M1670 667c15,-1 25,5 25,20 0,13 -11,19 -25,19l0 -39zm-12 48c56,8 58,-40 35,-53 -9,-6 -23,-6 -34,-5l-1 58z"/>
   <path fill="#1A1919" d="M1994 666c8,0 15,1 15,9 0,8 -7,9 -15,9l0 -18zm-11 49l11 0 0 -23c3,1 2,0 6,6 1,2 2,4 4,6 9,13 5,12 21,11 -2,-4 -13,-17 -17,-24l1 0c5,-3 7,-3 10,-9 2,-5 2,-12 -1,-17 -6,-10 -22,-8 -35,-8l0 58z"/>
   <path fill="#1A1919" d="M1906 717l5 0c3,-3 24,-54 26,-60 -16,0 -11,-4 -24,28l-5 11c-1,-6 -13,-36 -16,-39l-11 0 25 60z"/>
   <polygon fill="#1A1919" points="1974,706 1953,705 1953,690 1973,689 1973,680 1953,680 1953,667 1974,667 1974,657 1942,657 1942,715 1974,715 "/>
   <path fill="#1A1919" d="M1735 701c-2,2 -4,3 -5,7 19,22 44,6 39,-14 -3,-11 -12,-10 -22,-16 -5,-2 -5,-8 0,-10 6,-3 10,0 13,2 1,1 -1,0 2,1 1,-2 4,-5 5,-7 -26,-19 -44,8 -30,21 5,5 21,7 21,15 0,8 -11,10 -17,5 -1,0 -2,-1 -3,-2 -3,-2 1,-1 -3,-2z"/>
   <path fill="#1A1919" d="M1817 713l0 -13 -5 3c-1,1 -3,2 -5,2 -5,1 -9,0 -13,-2 -6,-3 -11,-8 -10,-18 0,-13 11,-22 23,-19 5,1 6,4 10,5l0 -13c-11,-3 -20,-5 -31,1 -18,12 -19,39 -1,51 11,8 20,7 32,3z"/>
   <path fill="#FEFEFE" d="M1670 706c14,0 25,-6 25,-19 0,-15 -10,-21 -25,-20l0 39z"/>
   <path fill="#1A1919" d="M1713 715l11 0 0 -58 -10 0c-2,6 -1,50 -1,58z"/>
   <path fill="#FEFEFE" d="M1994 684c8,0 15,-1 15,-9 0,-8 -7,-9 -15,-9l0 18z"/>
   <path fill="#6C6B6B" d="M2025 656c3,0 5,0 5,3 0,6 0,1 -2,3l-1 -2c0,-1 0,-2 0,-2 0,-1 0,-1 -1,-1l-2 0c2,0 1,1 1,-1zm0 0c-6,2 -6,10 5,8 1,-5 1,-5 0,-9 -3,0 -3,-1 -5,1z"/>
   <path fill="#AAA9A9" d="M1974 706c-2,-1 0,-1 -4,-1l-16 0 0 -15 19 -1 -20 1 0 15 21 1z"/>
   <path fill="gainsboro" d="M2025 656c0,2 1,1 -1,1l2 0c1,0 1,0 1,1 0,0 0,1 0,2l1 2c2,-2 2,3 2,-3 0,-3 -2,-3 -5,-3z"/>
  </g>
  <g>
   <g id="round-rect">
    <g id="dinner_club">
     <path id="Rectangle-2" fill="#F4F4F4" d="M2559 584c-20,0 -232,0 -350,0 -10,0 -20,10 -20,20 0,60 0,180 0,200 0,20 10,30 30,30 112,0 320,0 340,0 20,0 30,-10 30,-30 0,-20 0,-124 0,-190 0,-20 -10,-30 -30,-30z"/>
     <g id="logo">
      <path id="Shape_10" fill="#4186CD" d="M2401 739c31,0 58,-25 58,-55 0,-33 -27,-56 -58,-56l-26 0c-31,0 -56,23 -56,56 0,30 25,55 56,55l26 0 0 0z"/>
      <path id="Shape_11" fill="white" d="M2375 632c-28,0 -51,23 -51,51 0,29 23,52 51,52 28,0 51,-23 51,-52 0,-28 -23,-51 -51,-51l0 0zm-31 50l0 0c0,-13 8,-25 20,-30l0 60c-12,-4 -20,-16 -20,-30l0 0zm42 30l0 0 0 -60c12,5 20,17 20,30 0,14 -8,26 -20,30l0 0z"/>
      <g id="text">
       <path id="Shape_12" fill="#211E1F" d="M2277 757c0,-4 -2,-4 -4,-4l0 -1c2,0 4,0 6,0 2,0 5,0 9,0 13,0 20,9 20,18 0,5 -3,17 -21,17 -3,0 -5,0 -8,0 -2,0 -4,0 -6,0l0 -1c3,0 4,0 4,-4l0 -25 0 0 0 0zm4 24l0 0c0,4 3,4 6,4 11,0 14,-8 14,-15 0,-9 -6,-16 -16,-16 -2,0 -3,0 -4,0l0 27 0 0z"/>
       <path id="Shape_13" fill="#211E1F" d="M2308 786l1 0c2,0 3,0 3,-2l0 -13c0,-2 -1,-2 -3,-3l0 -1c2,-1 5,-1 5,-2 1,0 1,0 1,0 1,0 1,0 1,1l0 18c0,2 1,2 2,2l1 0 0 1c-2,0 -3,0 -5,0 -2,0 -4,0 -6,0l0 -1 0 0 0 0zm5 -30l0 0c-2,0 -3,-1 -3,-2 0,-1 1,-2 3,-2 1,0 2,1 2,2 0,1 -1,2 -2,2l0 0z"/>
       <path id="Shape_14" fill="#211E1F" d="M2325 772c0,-2 -1,-3 -3,-4l0 -1c2,0 4,-1 6,-2 0,0 1,0 1,1l0 3c2,-2 5,-4 8,-4 4,0 6,3 6,7l0 12c0,2 1,2 2,2l1 0 0 1c-2,0 -4,0 -5,0 -2,0 -4,0 -6,0l0 -1 1 0c2,0 3,0 3,-2l0 -12c0,-3 -2,-4 -5,-4 -1,0 -4,1 -5,2l0 14c0,2 1,2 2,2l1 0 0 1c-2,0 -4,0 -5,0 -2,0 -4,0 -6,0l0 -1 1 0c2,0 3,0 3,-2l0 -12 0 0 0 0z"/>
       <path id="Shape_15" fill="#211E1F" d="M2350 774c0,1 0,2 0,3 0,5 4,9 8,9 3,0 5,-1 7,-3l1 1c-3,3 -6,6 -10,6 -8,0 -10,-8 -10,-12 0,-10 7,-13 11,-13 4,0 9,3 9,8 0,1 0,1 0,1l-1 0 -15 0 0 0zm10 -2l0 0c1,0 1,-1 1,-1 0,-2 -1,-4 -4,-4 -4,0 -6,2 -7,5l10 0 0 0z"/>
       <path id="Shape_16" fill="#211E1F" d="M2366 786l1 0c1,0 2,0 2,-2l0 -13c0,-2 -1,-2 -2,-2l0 -1c3,-2 5,-3 5,-3 1,0 1,0 1,1l0 4 0 0c1,-2 3,-5 6,-5 1,0 2,1 2,3 0,1 0,2 -2,2 -1,0 -1,-1 -3,-1 -1,0 -3,1 -3,4l0 11c0,2 1,2 2,2l3 0 0 1c-3,0 -5,0 -7,0 -2,0 -3,0 -5,0l0 -1 0 0 0 0z"/>
       <path id="Shape_17" fill="#211E1F" d="M2385 782c0,3 2,6 6,6 3,0 4,-2 4,-4 0,-6 -11,-4 -11,-12 0,-3 2,-7 8,-7 2,0 4,1 6,2l0 5 -1 0c-1,-3 -2,-5 -6,-5 -2,0 -4,1 -4,3 0,6 12,4 12,13 0,3 -3,7 -9,7 -2,0 -4,-1 -6,-2l0 -6 1 0 0 0z"/>
       <path id="Shape_18" fill="#211E1F" d="M2444 762l-2 0c-1,-6 -5,-9 -10,-9 -6,0 -14,4 -14,17 0,10 7,18 14,18 5,0 9,-4 10,-9l2 0 -2 8c-2,1 -7,3 -11,3 -11,0 -18,-8 -18,-20 0,-11 9,-18 18,-18 4,0 8,1 12,3l1 7 0 0z"/>
       <path id="Shape_19" fill="#211E1F" d="M2446 786l1 0c1,0 2,0 2,-2l0 -27c0,-3 0,-3 -2,-4l0 -1c2,0 4,-1 5,-2 0,0 1,0 1,0 0,0 0,0 0,0l0 34c0,2 2,2 3,2l1 0 0 1c-2,0 -4,0 -5,0 -2,0 -4,0 -6,0l0 -1 0 0 0 0z"/>
       <path id="Shape_20" fill="#211E1F" d="M2478 784c0,1 1,1 1,1 1,0 2,0 2,0l0 1c-2,0 -6,1 -7,1l0 0 0 -4c-3,3 -5,4 -9,4 -2,0 -5,-1 -5,-5l0 -13c0,-1 0,-2 -3,-3l0 -1c2,0 6,0 6,0 1,0 1,0 1,2l0 12c0,2 0,6 4,6 2,0 4,-2 6,-3l0 -13c0,-1 -2,-2 -4,-2l0 -1c4,-1 7,-1 8,-1 0,0 0,0 0,1l0 18 0 0 0 0z"/>
       <path id="Shape_21" fill="#211E1F" d="M2488 769c2,-2 5,-4 8,-4 6,0 10,6 10,11 0,7 -5,14 -13,14 -4,0 -6,-2 -7,-2l-1 1 -2 -1c1,-3 1,-6 1,-9l0 -22c0,-3 -1,-3 -3,-4l0 -1c2,0 5,-1 6,-2 0,0 1,0 1,0 0,0 0,0 0,0l0 19 0 0 0 0zm0 13l0 0c0,2 2,5 5,5 6,0 8,-5 8,-10 0,-5 -4,-10 -8,-10 -2,0 -4,2 -5,3l0 12 0 0 0 0z"/>
      </g>
     </g>
    </g>
   </g>
  </g>
 </g>
</svg>
